<?xml version="1.0" encoding="UTF-8"?>
<svg xmlns="http://www.w3.org/2000/svg" width="1200" height="1200" viewBox="0 0 1200 1200">
<defs>
  <radialGradient id="uterus"><stop stop-color="#ffe6e0"/><stop offset=".72" stop-color="#ffaaa1"/><stop offset="1" stop-color="#f47e76"/></radialGradient>
  <radialGradient id="cavity"><stop stop-color="#a92d31"/><stop offset=".65" stop-color="#7a171c"/><stop offset="1" stop-color="#510e13"/></radialGradient>
  <radialGradient id="sac"><stop stop-color="#fffdfa"/><stop offset=".7" stop-color="#ffe5dd"/><stop offset="1" stop-color="#ee9c91"/></radialGradient>
  <linearGradient id="placenta" x1="0" y1="0" x2="1" y2="1"><stop stop-color="#ed756b"/><stop offset="1" stop-color="#b9403e"/></linearGradient>
  <radialGradient id="skin" cx="30%" cy="18%"><stop stop-color="#fff8f1"/><stop offset=".46" stop-color="#ffd7c7"/><stop offset="1" stop-color="#cd6258"/></radialGradient>
  <linearGradient id="cord" x1="0" y1="0" x2="1" y2="0"><stop stop-color="#ffe1d8"/><stop offset=".5" stop-color="#da7468"/><stop offset="1" stop-color="#efa096"/></linearGradient>
  <filter id="blur"><feGaussianBlur stdDeviation="14"/></filter>
</defs>

<rect width="1200" height="1200" fill="#fff"/>
<ellipse cx="600" cy="1065" rx="350" ry="28" fill="#d9847b" opacity=".16" filter="url(#blur)"/>

<!-- uterus -->
<circle cx="600" cy="600" r="475" fill="url(#uterus)"/>
<circle cx="600" cy="600" r="446" fill="#ff7169"/>
<circle cx="600" cy="600" r="424" fill="#ffaaa1"/>
<circle cx="600" cy="600" r="405" fill="url(#cavity)"/>
<circle cx="600" cy="600" r="379" fill="#651317" opacity=".8"/>

<!-- decidual/endometrial tissue -->
<path d="M164 365 C245 278 351 275 419 344 C468 394 468 475 451 557
C432 648 451 731 516 804 C593 890 719 910 828 858
C914 817 971 742 1036 635 L1036 1035 L164 1035Z" fill="url(#placenta)"/>
<path d="M185 366 C260 297 351 296 411 356 C460 405 458 486 443 558
C423 650 445 740 513 812 C592 895 719 916 831 861
C916 820 973 744 1021 648" fill="none" stroke="#ffb9ae" stroke-width="25" opacity=".72"/>

<!-- tissue cells -->
<g fill="#e86c63" stroke="#c84d49" stroke-width="4">
<circle cx="210" cy="376" r="30"/><circle cx="257" cy="334" r="32"/><circle cx="311" cy="320" r="31"/>
<circle cx="360" cy="343" r="32"/><circle cx="401" cy="383" r="31"/><circle cx="423" cy="433" r="31"/>
<circle cx="428" cy="489" r="30"/><circle cx="420" cy="546" r="31"/><circle cx="421" cy="606" r="31"/>
<circle cx="439" cy="665" r="32"/><circle cx="470" cy="720" r="33"/><circle cx="516" cy="767" r="34"/>
<circle cx="570" cy="801" r="34"/><circle cx="632" cy="819" r="34"/><circle cx="696" cy="821" r="33"/>
<circle cx="758" cy="809" r="33"/><circle cx="816" cy="785" r="32"/><circle cx="866" cy="751" r="31"/>
<circle cx="911" cy="705" r="30"/><circle cx="948" cy="653" r="30"/>
<circle cx="233" cy="429" r="31"/><circle cx="265" cy="475" r="31"/><circle cx="271" cy="531" r="30"/>
<circle cx="277" cy="591" r="31"/><circle cx="291" cy="649" r="32"/><circle cx="324" cy="705" r="32"/>
<circle cx="370" cy="754" r="33"/><circle cx="422" cy="795" r="33"/>
</g>

<!-- amniotic sac -->
<path d="M414 234 C530 161 699 161 814 228 C919 288 960 405 952 532
C945 675 879 792 767 855 C665 913 535 900 441 827
C347 755 307 640 316 505 C324 387 353 278 414 234Z"
fill="url(#sac)" stroke="#ffe8e0" stroke-width="12"/>

<!-- placenta -->
<path d="M793 253 C869 299 915 380 922 477 C931 601 899 711 824 796
C792 754 761 706 732 644 C707 588 711 399 793 253Z" fill="#d95852"/>
<g fill="none" stroke="#ffaaa0" stroke-width="15" stroke-linecap="round">
<path d="M818 317 Q868 275 906 234"/><path d="M847 369 Q908 335 939 295"/>
<path d="M867 427 Q928 405 956 369"/><path d="M877 488 Q937 480 968 449"/>
<path d="M878 550 Q934 556 965 537"/><path d="M863 615 Q921 637 949 664"/>
<path d="M840 678 Q887 712 911 747"/>
</g>

<!-- residual yolk sac -->
<ellipse cx="405" cy="735" rx="8" ry="7" fill="#ffd077" stroke="#ffe6aa" stroke-width="3"/>

<!-- umbilical cord -->
<path d="M674 800 C713 810 740 829 760 853 C785 883 808 906 839 916"
fill="none" stroke="url(#cord)" stroke-width="22" stroke-linecap="round"/>
<path d="M674 798 C713 808 738 827 758 851 C783 881 806 904 837 914"
fill="none" stroke="#ffe4dc" stroke-width="7" stroke-linecap="round"/>

<!-- fetus: 25 weeks, fuller body and increasingly mature proportions -->
<g>
<!-- torso -->
<path d="M574 445 C538 461 518 505 516 559 C514 615 526 670 549 722
C570 771 586 819 611 856 C641 901 702 913 755 886
C802 862 819 813 804 762 C790 710 764 664 749 614
C732 557 727 508 693 465 C660 423 611 423 574 445Z"
fill="url(#skin)" stroke="#ffe6dd" stroke-width="10"/>

<!-- head, slightly more proportionate -->
<path d="M500 234 C448 232 405 263 386 314 C366 369 379 429 417 467
C452 502 498 510 535 486 C574 459 591 402 580 346
C571 293 542 240 500 234Z"
fill="#ffebe1" stroke="#ffe6dd" stroke-width="8"/>

<!-- neck -->
<path d="M519 469 Q543 493 572 505" fill="none" stroke="#e88c7e" stroke-width="24" stroke-linecap="round"/>

<!-- ear -->
<ellipse cx="545" cy="387" rx="17" ry="25" fill="#d96d63"/>
<path d="M542 377 Q556 389 542 405" fill="none" stroke="#ffd4ca" stroke-width="6" stroke-linecap="round"/>

<!-- face/profile -->
<path d="M407 300 Q437 262 478 255 Q521 254 549 286
Q570 311 568 344 L585 361 L567 381 Q565 419 530 449"
fill="none" stroke="#d35f56" stroke-width="11" stroke-linecap="round" stroke-linejoin="round"/>
<circle cx="502" cy="317" r="13" fill="#691317"/>
<circle cx="507" cy="312" r="5" fill="#fff"/>
<path d="M510 396 Q527 407 543 398" fill="none" stroke="#d45f57" stroke-width="7" stroke-linecap="round"/>
<path d="M423 420 Q462 465 516 455" fill="none" stroke="#e17a6f" stroke-width="8" opacity=".7"/>

<!-- chest/heart -->
<path d="M602 509 C586 488 560 501 566 529 C572 555 596 574 614 587
C631 571 656 550 651 524 C646 501 619 496 602 509Z" fill="#d34e4b"/>
<path d="M615 525 Q628 537 633 551" fill="none" stroke="#f18a80" stroke-width="7" stroke-linecap="round"/>

<!-- left arm bent across chest -->
<path d="M586 548 Q556 546 535 525 Q516 506 509 485"
fill="none" stroke="#e58b7d" stroke-width="25" stroke-linecap="round"/>
<path d="M509 485 l-16 -15 M509 485 l-5 -21 M509 485 l7 -20 M509 485 l15 -13"
fill="none" stroke="#d26159" stroke-width="7" stroke-linecap="round"/>

<!-- right arm -->
<path d="M683 559 Q721 569 744 597 Q763 621 767 650"
fill="none" stroke="#e58b7d" stroke-width="26" stroke-linecap="round"/>
<path d="M767 650 l17 15 M767 650 l8 21 M767 650 l-2 21 M767 650 l-15 17"
fill="none" stroke="#d26159" stroke-width="7" stroke-linecap="round"/>

<!-- legs -->
<path d="M606 729 Q577 748 563 780 Q553 806 571 829 Q589 849 616 860"
fill="none" stroke="#e38a7c" stroke-width="31" stroke-linecap="round"/>
<path d="M675 727 Q704 747 717 779 Q728 804 715 828 Q703 846 682 858"
fill="none" stroke="#e38a7c" stroke-width="31" stroke-linecap="round"/>

<!-- feet/toes -->
<path d="M616 860 Q634 870 652 860 M682 858 Q666 868 650 861"
fill="none" stroke="#d26159" stroke-width="10" stroke-linecap="round"/>
<path d="M628 863 l10 14 M637 861 l11 10 M621 864 l5 14
M670 864 l-10 13 M662 863 l-11 9 M677 863 l-5 14"
fill="none" stroke="#d26159" stroke-width="6" stroke-linecap="round"/>

<!-- abdomen contour -->
<path d="M610 588 Q672 607 710 658 Q733 691 744 738"
fill="none" stroke="#d96a60" stroke-width="13" opacity=".62"/>

<!-- subtle lanugo/vernix -->
<path d="M570 629 Q598 644 626 647 M578 664 Q605 676 634 678
M657 688 Q681 698 704 718 M579 699 Q605 709 628 711"
fill="none" stroke="#fff5ef" stroke-width="5" opacity=".68" stroke-linecap="round"/>

<path d="M407 304 Q436 265 477 255" fill="none" stroke="#fffaf6" stroke-width="13" stroke-linecap="round" opacity=".85"/>
</g>

<!-- fluid particles -->
<g fill="#f99d92" stroke="#ffded7" stroke-width="3">
<circle cx="383" cy="298" r="8"/><circle cx="447" cy="250" r="7"/><circle cx="758" cy="279" r="8"/>
<circle cx="850" cy="353" r="8"/><circle cx="891" cy="464" r="7"/><circle cx="889" cy="595" r="8"/>
<circle cx="841" cy="758" r="7"/><circle cx="451" cy="799" r="7"/>
</g>
</svg>